<svg id="CD_Projekt_RED_logo" data-name="CD Projekt RED logo" xmlns="http://www.w3.org/2000/svg" viewBox="0 0 586.9 129.21"><defs><style>.cls-1{fill:#fff;fill-rule:evenodd}</style></defs><g id="logo_white" data-name="logo white"><path class="cls-1" d="M127.16 0H8.61A8.62 8.62 0 000 8.61v112a8.62 8.62 0 008.61 8.62h118.55a8.62 8.62 0 008.62-8.62v-112A8.62 8.62 0 00127.16 0zm-86.7 83h-15.8a2.23 2.23 0 00-2.23 2.24v11.24a2.24 2.24 0 002.23 2.25h15.8v7.52H20.75a5.83 5.83 0 01-5.84-5.83V81.25a5.83 5.83 0 015.84-5.81h19.71zm5.7-21a5.91 5.91 0 01-5.91 5.92H14.9v-7.6h21.37A2.28 2.28 0 0038.54 58V32.85a2.26 2.26 0 00-2.27-2.27H24.78a2.26 2.26 0 00-2.26 2.27V44.3a2.27 2.27 0 002.26 2.28H34v7.62H20.81a5.9 5.9 0 01-5.91-5.9V28.86A5.91 5.91 0 0120.81 23h19.44a5.92 5.92 0 015.91 5.91zm31.11 38.39a5.82 5.82 0 01-5.82 5.83H52.3a5.82 5.82 0 01-5.83-5.83V81.25a5.82 5.82 0 015.83-5.81h19.15a5.82 5.82 0 015.82 5.81zm.34-46.2H58.16a5.9 5.9 0 01-5.9-5.91V28.86a5.91 5.91 0 015.9-5.86h19.45a5.92 5.92 0 015.91 5.91V48.3a5.91 5.91 0 01-5.91 5.91zm43.25 52h-7.51V83h-5.28a2.24 2.24 0 00-2.24 2.24v21h-7.51V83H93a2.24 2.24 0 00-2.24 2.24v21.07h-7.47v-25a5.82 5.82 0 015.83-5.81h31.74zm0-44.22a5.91 5.91 0 01-5.86 5.97H89.62v-7.62H111a2.29 2.29 0 002.27-2.32V32.85a2.27 2.27 0 00-2.27-2.27H99.51a2.26 2.26 0 00-2.26 2.27V44.3a2.27 2.27 0 002.26 2.28h9.17v7.62H95.53a5.9 5.9 0 01-5.91-5.91V28.86A5.91 5.91 0 0195.53 23H115a5.92 5.92 0 015.91 5.91z"/><path class="cls-1" d="M73.63 30.58a2.25 2.25 0 012.25 2.27V44.3a2.25 2.25 0 01-2.25 2.28H62.15a2.27 2.27 0 01-2.27-2.28V32.85a2.26 2.26 0 012.27-2.27h11.48M67.54 83a2.23 2.23 0 012.22 2.24v11.24a2.23 2.23 0 01-2.22 2.25H56.22A2.24 2.24 0 0154 96.48V85.19A2.24 2.24 0 0156.22 83h11.32"/><path d="M215.72 93.53a37.24 37.24 0 01-11.2 1.61 35.63 35.63 0 01-13-2.24 28.3 28.3 0 01-9.9-6.25A27.17 27.17 0 01175.3 77a33.75 33.75 0 01-2.21-12.39 34.53 34.53 0 012.15-12.46 27.47 27.47 0 016.11-9.65 26.85 26.85 0 019.65-6.22 34.54 34.54 0 0112.68-2.21 38.68 38.68 0 016.58.52 29.14 29.14 0 015.63 1.5 27 27 0 014.79 2.37 30.42 30.42 0 014.13 3.15l-2.29 3.67a2.41 2.41 0 01-1.4 1.07 2.45 2.45 0 01-1.9-.4c-.66-.39-1.43-.86-2.29-1.42a20.28 20.28 0 00-3.14-1.6 24.86 24.86 0 00-4.38-1.32 28.93 28.93 0 00-6-.54 24.34 24.34 0 00-9.13 1.64 19.39 19.39 0 00-7 4.72 20.75 20.75 0 00-4.41 7.42 29.07 29.07 0 00-1.54 9.77A29.51 29.51 0 00183 74.69a20.94 20.94 0 004.59 7.54 19.41 19.41 0 007.18 4.77 26.6 26.6 0 009.55 1.63 29.7 29.7 0 003.89-.25 28.56 28.56 0 003.48-.7 24.2 24.2 0 003.21-1.08c1-.43 2.07-.92 3.13-1.48v-13.2h-9.3a1.8 1.8 0 01-1.27-.46 1.5 1.5 0 01-.48-1.13v-4.58h18.34v22.93a33.39 33.39 0 01-9.6 4.85zm80.47-28.91a34.38 34.38 0 01-2.13 12.32 27.94 27.94 0 01-6 9.65 26.82 26.82 0 01-9.31 6.28 33.51 33.51 0 01-24 0 26.83 26.83 0 01-9.29-6.28 28.11 28.11 0 01-6-9.65 34.6 34.6 0 01-2.12-12.32 34.68 34.68 0 012.12-12.32 28.58 28.58 0 016-9.67 27 27 0 019.29-6.31 33.23 33.23 0 0124 0 27 27 0 019.31 6.31 28.4 28.4 0 016 9.67 34.46 34.46 0 012.13 12.32zm-8.29 0a30.42 30.42 0 00-1.5-9.88 20.72 20.72 0 00-4.26-7.39 18.25 18.25 0 00-6.67-4.65 24.19 24.19 0 00-17.46 0 18.49 18.49 0 00-6.69 4.65 20.6 20.6 0 00-4.32 7.39 30.42 30.42 0 00-1.5 9.88 30.27 30.27 0 001.5 9.87 20.69 20.69 0 004.28 7.37 18.3 18.3 0 006.72 4.62 24.33 24.33 0 0017.46 0 18.06 18.06 0 006.67-4.62 20.8 20.8 0 004.26-7.37 30.27 30.27 0 001.51-9.87zm62.04 28.91a37.12 37.12 0 01-11.19 1.61 35.73 35.73 0 01-13-2.24 28.48 28.48 0 01-9.9-6.25 27.28 27.28 0 01-6.32-9.65 33.54 33.54 0 01-2.21-12.39 34.53 34.53 0 012.15-12.46 27.45 27.45 0 016.1-9.65 27 27 0 019.63-6.23 34.49 34.49 0 0112.67-2.21 38.8 38.8 0 016.59.52 29.14 29.14 0 015.63 1.5 27 27 0 014.79 2.37 30.42 30.42 0 014.12 3.16l-2.29 3.67a2.41 2.41 0 01-1.4 1.07 2.45 2.45 0 01-1.9-.4c-.66-.39-1.43-.86-2.29-1.42a20 20 0 00-3.15-1.6 24.73 24.73 0 00-4.37-1.32 29 29 0 00-6-.54 24.41 24.41 0 00-9.13 1.64 19.44 19.44 0 00-7 4.72 20.91 20.91 0 00-4.42 7.42 29.32 29.32 0 00-1.54 9.77 29.51 29.51 0 001.61 10.07 20.78 20.78 0 004.58 7.54A19.57 19.57 0 00329 87a26.68 26.68 0 009.55 1.63 29.74 29.74 0 003.9-.25 28.56 28.56 0 003.48-.7 24.2 24.2 0 003.21-1.08c1-.43 2.07-.92 3.13-1.48v-13.2H343a1.78 1.78 0 01-1.27-.46 1.5 1.5 0 01-.48-1.13v-4.58h18.34v22.93a33.32 33.32 0 01-9.65 4.85zm23.69-3.65a5.28 5.28 0 01.39-2 5.46 5.46 0 011.08-1.67 5.21 5.21 0 011.65-1.13 5.19 5.19 0 014.09 0 5.53 5.53 0 011.67 1.13 5.38 5.38 0 011.12 1.67 5 5 0 01.42 2 5 5 0 01-.42 2.07 5.67 5.67 0 01-1.12 1.65 5.27 5.27 0 01-1.67 1.1 5.43 5.43 0 01-4.09 0 5 5 0 01-1.65-1.1A5.75 5.75 0 01374 92a5.37 5.37 0 01-.37-2.12zm65.99-7.75a1.51 1.51 0 011.16.55l3.22 3.45a25.37 25.37 0 01-8.9 6.63 30.35 30.35 0 01-12.65 2.38 29.33 29.33 0 01-11.67-2.24 25.45 25.45 0 01-9-6.25 28.1 28.1 0 01-5.73-9.65 36.19 36.19 0 01-2-12.39 34.93 34.93 0 012.12-12.38 28.36 28.36 0 016-9.67 26.92 26.92 0 019.23-6.28 30.88 30.88 0 0111.88-2.22 29 29 0 0111.26 2 28.49 28.49 0 018.59 5.54l-2.67 3.71a2.26 2.26 0 01-.65.69 1.8 1.8 0 01-1.06.27 3.35 3.35 0 01-1.84-.81A26.37 26.37 0 00434 43.7a22.42 22.42 0 00-4.38-1.82 22.16 22.16 0 00-6.46-.81 21.48 21.48 0 00-8.46 1.61 18.31 18.31 0 00-6.61 4.64 21.27 21.27 0 00-4.31 7.42 29.6 29.6 0 00-1.55 9.88 28.84 28.84 0 001.61 10 22 22 0 004.4 7.38 18.36 18.36 0 006.55 4.61 20.78 20.78 0 008.15 1.59 33.48 33.48 0 004.82-.32 19.18 19.18 0 003.95-1 16.91 16.91 0 003.38-1.68 25.69 25.69 0 003.11-2.44 2.13 2.13 0 011.42-.63zm70.54-17.51A34.38 34.38 0 01508 76.94a28.11 28.11 0 01-6 9.65 26.73 26.73 0 01-9.31 6.28 33.48 33.48 0 01-24 0 26.87 26.87 0 01-9.3-6.28 28.24 28.24 0 01-6-9.65 34.38 34.38 0 01-2.13-12.32 34.46 34.46 0 012.13-12.32 28.71 28.71 0 016-9.67 27.09 27.09 0 019.3-6.31 33.21 33.21 0 0124 0 26.94 26.94 0 019.31 6.31 28.58 28.58 0 016 9.67 34.46 34.46 0 012.16 12.32zm-8.29 0a30.42 30.42 0 00-1.5-9.88 20.85 20.85 0 00-4.25-7.39 18.42 18.42 0 00-6.67-4.65 24.22 24.22 0 00-17.47 0 18.58 18.58 0 00-6.69 4.65 20.59 20.59 0 00-4.29 7.39 30.42 30.42 0 00-1.5 9.88 30.27 30.27 0 001.5 9.87 20.67 20.67 0 004.27 7.37 18.38 18.38 0 006.73 4.62 24.36 24.36 0 0017.47 0 18.22 18.22 0 006.67-4.62 20.93 20.93 0 004.25-7.37 30.27 30.27 0 001.48-9.87zM555.09 75c.31.73.61 1.46.92 2.18.28-.75.57-1.49.87-2.23s.64-1.44 1-2.1l20.26-36.73a2.26 2.26 0 011.11-1.17 5.36 5.36 0 011.69-.2h6v59.72h-7.09V48.7c0-.67.07-1.35.13-2.05L559.51 84a3.1 3.1 0 01-2.92 1.87h-1.17a3.08 3.08 0 01-2.91-1.87l-20.93-37.47c.08.73.15 1.43.19 2.12s.06 1.34.06 1.92v43.9h-7.09V34.74h6a5.18 5.18 0 011.67.2 2.4 2.4 0 011.13 1.17l20.63 36.76c.29.67.61 1.37.92 2.13z" fill="#fff"/></g></svg>